<?xml version="1.0" encoding="utf-8"?>
<!-- Generator: Adobe Illustrator 23.1.1, SVG Export Plug-In . SVG Version: 6.00 Build 0)  -->
<svg version="1.1" id="Layer_1" xmlns="http://www.w3.org/2000/svg" xmlns:xlink="http://www.w3.org/1999/xlink" x="0px" y="0px"
	 viewBox="0 0 290 286" style="enable-background:new 0 0 290 286;" xml:space="preserve">
<style type="text/css">
	.st0{fill:#1A73E8;}
    @media (prefers-color-scheme: dark) {
      .st0{fill:#fff;}
    }

</style>


<title>mrp-icon-software-development</title>
<g>
	<g id="jysW21.tif">
		<path class="st0" d="M197.3,241.3h-36c-2.6,0.2-4.9-1.6-5.1-4.2c0-0.2,0-0.4,0-0.6c0.1-2.6,2.2-4.7,4.9-4.7c0.1,0,0.2,0,0.3,0
			h72.2c2.6-0.1,4.8,1.9,4.9,4.5c0,0,0,0,0,0.1c0.1,2.6-2,4.8-4.6,4.9c-0.1,0-0.2,0-0.3,0H197.3L197.3,241.3z"/>
		<path class="st0" d="M59.7,231.9c3.2,0,6.3,0,9.5,0c2.6,0,4.8,2.1,4.8,4.8c0,2.6-2.1,4.8-4.8,4.8l0,0c-6.5,0-13,0-19.6,0
			c-2.6,0.1-4.7-1.9-4.8-4.5c0-0.2,0-0.3,0-0.5c0.1-2.6,2.2-4.7,4.8-4.6h0.1C53.2,231.8,56.4,231.9,59.7,231.9z"/>
		<path class="st0" d="M168.8,199.7h9.2c2.7,0,4.8,2.2,4.8,4.8c0,2.7-2.2,4.8-4.8,4.8c-6.2,0-12.4,0-18.7,0
			c-2.7,0.4-5.2-1.5-5.6-4.2c0-0.2,0-0.4,0-0.6c0.1-2.8,2.4-5,5.2-4.9h0.1h9.5L168.8,199.7z"/>
		<path class="st0" d="M112.6,209.5c-3.2,0-6.3,0-9.5,0c-2.7,0.2-5-1.8-5.2-4.4c0-0.2,0-0.3,0-0.5c0-2.6,2-4.7,4.6-4.8
			c0.1,0,0.3,0,0.4,0c6.4,0,12.9,0,19.3,0c2.7,0,4.8,2.2,4.8,4.8s-2.2,4.8-4.8,4.8C118.9,209.5,115.7,209.5,112.6,209.5z"/>
		<path class="st0" d="M112.6,231.9c3.2,0,6.3,0,9.5,0c2.6,0,4.8,2.1,4.8,4.8c0,2.6-2.1,4.8-4.8,4.8l0,0c-6.4,0-12.8,0-19.3,0
			c-2.6,0.3-5-1.6-5.3-4.3c-0.3-2.6,1.6-5,4.3-5.3c0.3,0,0.7,0,1,0C106.3,231.8,109.5,231.9,112.6,231.9z"/>
		<path class="st0" d="M225.1,199.7h9.2c3.4,0,5.6,1.9,5.6,4.9c0,2.6-2.1,4.8-4.7,4.8c-0.2,0-0.4,0-0.6,0c-6.3,0-12.5,0-18.7,0
			c-2.6,0.3-4.9-1.6-5.1-4.1c0-0.3,0-0.5,0-0.8c0-2.6,2.1-4.8,4.7-4.8c0.3,0,0.6,0,0.9,0.1L225.1,199.7L225.1,199.7z"/>
		<path class="st0" d="M59.4,209.5c-3,0-6.1,0-9.2,0c-2.7,0-4.8-2.2-4.8-4.8s2.2-4.8,4.8-4.8c6.3,0,12.5,0,18.7,0
			c2.6-0.2,5,1.7,5.2,4.3c0,0.2,0,0.4,0,0.5c0,2.7-2.2,4.8-4.9,4.8c-0.2,0-0.4,0-0.7-0.1C65.8,209.5,62.6,209.5,59.4,209.5z"/>
	</g>
	<g id="jysW21.tif-2">
		<path class="st0" d="M284.2,247.6c-7-20.7-13.2-41.6-19.8-62.4c-0.7-1.4-0.3-3,0.8-4c2.1-2.1,3.3-5.1,3-8.1c0-14.5,0-29.1,0-43.6
			l0,0c0-33.1,0-66.2,0-99.3c0.2-5.7-4.2-10.4-9.9-10.6c-0.1,0-0.2,0-0.3,0c-1.5,0-3,0-4.6,0H136.6c2.6,3,4.9,6.2,7.1,9.6h112.1
			c2.5,0,2.8,1.1,2.7,3.1v101.6l0,0c0,12.8,0,25.5,0,38.3c0,2.3-0.7,2.9-3,2.9c-73.6,0-147.3,0-220.9,0c-2.5,0-3-0.8-3-3.1
			c0-46.6,0-93.2,0-139.7c0-2,0-3.1,2.7-3.1h112.1c2.1-3.4,4.5-6.6,7.1-9.6H36.7c-1.6,0-3.1,0-4.6,0c-5.7,0-10.2,4.6-10.2,10.3
			c0,0.1,0,0.2,0,0.3c0,47.9,0,95.8,0,143.8c0.3,2.6,1.3,5.1,2.9,7.2c1,1.1,1.3,2.6,0.8,4c-6.7,21.1-13.4,42.2-19.9,63.3
			c-0.8,2.5-1.1,5.2-0.6,7.8c1.5,6.6,7.8,10.9,14.5,10.1h187.1c4.9,0,7.3-1.6,7.2-5s-2.3-4.8-7.4-4.8H20.1c-5.6,0-6.4-1.4-4.8-6.4
			c6.6-20.8,13.3-41.7,19.8-62.7c0.3-2,2.2-3.3,4.1-3l0,0H251c1.9-0.4,3.6,0.8,4,2.7c0,0.1,0,0.1,0,0.2c2.5,8.5,5.2,16.8,7.8,25.2
			l12.2,38.6c1.1,3.5,0,5.3-3.9,5.6c-0.7,0-1.5,0-2.3,0c-9,0-18,0-27.1,0c-1.8,0.2-3.5,1-4.7,2.5c-0.8,1.5-0.8,3.2,0,4.7
			c1.3,1.4,3.2,2.2,5.1,2.4c9.3,0,18.6,0,28,0c7.5,0.7,14.2-4.9,14.8-12.4C285.3,251.8,285,249.6,284.2,247.6z"/>
	</g>
	<path class="st0" d="M177.9,126c0-2.7,1.3-5.3,3.4-6.9c5.6-4.8,11.7-9.5,17.5-14.3c0.4-0.4,1.1-0.7,1.3-1.2c0.3-0.6,0.3-1.2,0-1.8
		c-6.1-5-12-10-18.2-14.8c-3.8-2.5-4.8-7.6-2.3-11.3c0.6-0.9,1.4-1.7,2.3-2.3c3.2-2.5,7.7-2.1,10.4,0.8c9.1,7.3,18,14.7,26.9,22.1
		c3.6,2.7,4.4,7.8,1.7,11.4c-0.5,0.6-1,1.2-1.7,1.7c-9.5,7.8-18.9,15.5-28.5,23.1c-2.4,1.8-5.7,1.9-8.2,0.3
		C179.9,131.6,178,129,177.9,126z"/>
	<path class="st0" d="M112.1,79.2c0.1,3-1.3,5.9-3.7,7.8l-18.3,14.9c-1.1,0.9-0.6,1.6,0,2.3c6.1,5,12.2,10,18.3,15
		c3.7,2.6,4.5,7.7,1.9,11.4c-0.6,0.9-1.4,1.6-2.4,2.2c-3.1,1.8-7,1.5-9.7-0.8c-9.2-7.5-18.4-15.1-27.6-22.4
		c-3.5-3.1-3.9-8.4-0.8-11.9c0.3-0.3,0.5-0.6,0.8-0.8c9-7.3,17.9-14.7,26.9-22.1c3.1-3.2,8.2-3.4,11.4-0.3c0.4,0.3,0.7,0.7,1,1.1
		C110.8,76.6,111.5,77.9,112.1,79.2z"/>
	<path class="st0" d="M128.2,144.9c-3.1,0.5-5.9-1.6-6.4-4.7c-0.2-1.3,0.1-2.7,0.8-3.8c4.4-9.5,8.8-19,13.3-28.5
		c3.6-7.8,7.4-15.5,11.2-23.4l9.1-19.2c0.9-3,4-4.9,7.1-4.3c3.1,0.3,5.3,3.1,5,6.2c-0.1,0.6-0.2,1.2-0.5,1.7
		c-2.7,6.3-5.6,12.4-8.7,18.7l-6.7,14.3c-2.2,4.8-4.4,9.6-6.7,14.5l-10.1,21.5c-0.6,1.3-1.2,2.6-1.9,3.9
		C132.7,143.9,130.5,145.2,128.2,144.9z"/>
</g>
</svg>
