<svg width="20" height="20" viewBox="0 0 20 20" fill="none" xmlns="http://www.w3.org/2000/svg">
<path fill-rule="evenodd" clip-rule="evenodd" d="M7.353 0.938854C7.49145 1.07752 7.58611 1.2538 7.62522 1.44581C7.66433 1.63781 7.64618 1.83708 7.573 2.01885C6.98754 3.4739 6.8427 5.06895 7.15649 6.60565C7.47028 8.14236 8.22885 9.55293 9.33789 10.662C10.4469 11.771 11.8575 12.5296 13.3942 12.8434C14.9309 13.1572 16.526 13.0123 17.981 12.4269C18.1628 12.3538 18.362 12.3358 18.5539 12.375C18.7459 12.4142 18.9221 12.5089 19.0606 12.6474C19.1992 12.7859 19.2941 12.962 19.3334 13.1539C19.3728 13.3458 19.3549 13.545 19.282 13.7269C18.5375 15.5794 17.2557 17.1667 15.6016 18.2847C13.9474 19.4026 11.9965 19.9999 10 19.9999C4.477 19.9999 0 15.5229 0 9.99985C0 5.79285 2.598 2.19485 6.273 0.717854C6.45477 0.644679 6.65404 0.626519 6.84605 0.665632C7.03805 0.704744 7.21434 0.799404 7.353 0.937854V0.938854Z" fill="#676767"/>
</svg>
