<svg width="33" height="32" viewBox="0 0 33 32" fill="none" xmlns="http://www.w3.org/2000/svg">
<mask id="path-1-inside-1" fill="white">
<path fill-rule="evenodd" clip-rule="evenodd" d="M16.5 0C16.9376 0 17.3573 0.168571 17.6667 0.468629C17.9762 0.768687 18.15 1.17565 18.15 1.6V3.2C18.15 3.62435 17.9762 4.03131 17.6667 4.33137C17.3573 4.63143 16.9376 4.8 16.5 4.8C16.0624 4.8 15.6427 4.63143 15.3333 4.33137C15.0238 4.03131 14.85 3.62435 14.85 3.2V1.6C14.85 1.38989 14.8927 1.18183 14.9756 0.987707C15.0585 0.793586 15.1801 0.617203 15.3333 0.468629C15.4865 0.320055 15.6684 0.2022 15.8686 0.121793C16.0688 0.0413851 16.2833 0 16.5 0V0ZM4.83214 4.68571C4.98536 4.53712 5.16726 4.41925 5.36746 4.33884C5.56766 4.25842 5.78223 4.21703 5.99893 4.21703C6.21562 4.21703 6.4302 4.25842 6.6304 4.33884C6.83059 4.41925 7.0125 4.53712 7.16571 4.68571L8.3325 5.81714C8.48572 5.96572 8.60727 6.14212 8.69019 6.33625C8.77312 6.53038 8.8158 6.73845 8.8158 6.94857C8.8158 7.1587 8.77312 7.36677 8.69019 7.5609C8.60727 7.75503 8.48572 7.93142 8.3325 8.08C8.17928 8.22858 7.99737 8.34644 7.79717 8.42685C7.59698 8.50727 7.38241 8.54865 7.16571 8.54865C6.94902 8.54865 6.73445 8.50727 6.53425 8.42685C6.33406 8.34644 6.15215 8.22858 5.99893 8.08L4.83214 6.94857C4.67891 6.8 4.55736 6.62361 4.47442 6.42947C4.39149 6.23534 4.34881 6.02727 4.34881 5.81714C4.34881 5.60701 4.39149 5.39894 4.47442 5.20481C4.55736 5.01068 4.67891 4.83429 4.83214 4.68571V4.68571ZM28.1679 4.68571C28.3211 4.83429 28.4426 5.01068 28.5256 5.20481C28.6085 5.39894 28.6512 5.60701 28.6512 5.81714C28.6512 6.02727 28.6085 6.23534 28.5256 6.42947C28.4426 6.62361 28.3211 6.8 28.1679 6.94857L27.0011 8.08C26.6916 8.38007 26.2719 8.54865 25.8343 8.54865C25.3967 8.54865 24.977 8.38007 24.6675 8.08C24.3581 7.77993 24.1842 7.37294 24.1842 6.94857C24.1842 6.5242 24.3581 6.11722 24.6675 5.81714L25.8343 4.68571C25.9875 4.53712 26.1694 4.41925 26.3696 4.33884C26.5698 4.25842 26.7844 4.21703 27.0011 4.21703C27.2178 4.21703 27.4323 4.25842 27.6325 4.33884C27.8327 4.41925 28.0146 4.53712 28.1679 4.68571V4.68571ZM8.25 16C8.25 13.8783 9.11919 11.8434 10.6664 10.3431C12.2135 8.84286 14.312 8 16.5 8C18.688 8 20.7865 8.84286 22.3336 10.3431C23.8808 11.8434 24.75 13.8783 24.75 16C24.75 18.1217 23.8808 20.1566 22.3336 21.6569C20.7865 23.1571 18.688 24 16.5 24C14.312 24 12.2135 23.1571 10.6664 21.6569C9.11919 20.1566 8.25 18.1217 8.25 16ZM0 16C0 15.5757 0.173839 15.1687 0.483274 14.8686C0.792709 14.5686 1.21239 14.4 1.65 14.4H3.3C3.51668 14.4 3.73124 14.4414 3.93143 14.5218C4.13161 14.6022 4.31351 14.7201 4.46673 14.8686C4.61994 15.0172 4.74148 15.1936 4.8244 15.3877C4.90732 15.5818 4.95 15.7899 4.95 16C4.95 16.2101 4.90732 16.4182 4.8244 16.6123C4.74148 16.8064 4.61994 16.9828 4.46673 17.1314C4.31351 17.2799 4.13161 17.3978 3.93143 17.4782C3.73124 17.5586 3.51668 17.6 3.3 17.6H1.65C1.21239 17.6 0.792709 17.4314 0.483274 17.1314C0.173839 16.8313 0 16.4243 0 16V16ZM28.05 16C28.05 15.5757 28.2238 15.1687 28.5333 14.8686C28.8427 14.5686 29.2624 14.4 29.7 14.4H31.35C31.5667 14.4 31.7812 14.4414 31.9814 14.5218C32.1816 14.6022 32.3635 14.7201 32.5167 14.8686C32.6699 15.0172 32.7915 15.1936 32.8744 15.3877C32.9573 15.5818 33 15.7899 33 16C33 16.2101 32.9573 16.4182 32.8744 16.6123C32.7915 16.8064 32.6699 16.9828 32.5167 17.1314C32.3635 17.2799 32.1816 17.3978 31.9814 17.4782C31.7812 17.5586 31.5667 17.6 31.35 17.6H29.7C29.2624 17.6 28.8427 17.4314 28.5333 17.1314C28.2238 16.8313 28.05 16.4243 28.05 16V16ZM24.6675 23.92C24.8207 23.7714 25.0026 23.6535 25.2028 23.5731C25.403 23.4927 25.6176 23.4513 25.8343 23.4513C26.051 23.4513 26.2656 23.4927 26.4658 23.5731C26.666 23.6535 26.8479 23.7714 27.0011 23.92L28.1679 25.0514C28.3211 25.2 28.4426 25.3764 28.5256 25.5705C28.6085 25.7647 28.6512 25.9727 28.6512 26.1829C28.6512 26.393 28.6085 26.6011 28.5256 26.7952C28.4426 26.9893 28.3211 27.1657 28.1679 27.3143C28.0146 27.4629 27.8327 27.5807 27.6325 27.6611C27.4323 27.7416 27.2178 27.7829 27.0011 27.7829C26.7844 27.7829 26.5698 27.7416 26.3696 27.6611C26.1694 27.5807 25.9875 27.4629 25.8343 27.3143L24.6675 26.1829C24.5143 26.0343 24.3927 25.8579 24.3098 25.6638C24.2269 25.4696 24.1842 25.2616 24.1842 25.0514C24.1842 24.8413 24.2269 24.6332 24.3098 24.4391C24.3927 24.245 24.5143 24.0686 24.6675 23.92V23.92ZM5.99893 23.92C6.30838 23.6199 6.72808 23.4513 7.16571 23.4513C7.60334 23.4513 8.02305 23.6199 8.3325 23.92C8.64195 24.2201 8.8158 24.6271 8.8158 25.0514C8.8158 25.4758 8.64195 25.8828 8.3325 26.1829L7.16571 27.3143C7.01249 27.4629 6.83059 27.5807 6.63039 27.6611C6.43019 27.7416 6.21562 27.7829 5.99893 27.7829C5.78224 27.7829 5.56767 27.7416 5.36747 27.6611C5.16727 27.5807 4.98537 27.4629 4.83214 27.3143C4.67892 27.1657 4.55737 26.9893 4.47445 26.7952C4.39153 26.6011 4.34884 26.393 4.34884 26.1829C4.34884 25.9727 4.39153 25.7647 4.47445 25.5705C4.55737 25.3764 4.67892 25.2 4.83214 25.0514L5.99893 23.92ZM16.5 27.2C16.9376 27.2 17.3573 27.3686 17.6667 27.6686C17.9762 27.9687 18.15 28.3757 18.15 28.8V30.4C18.15 30.8243 17.9762 31.2313 17.6667 31.5314C17.3573 31.8314 16.9376 32 16.5 32C16.0624 32 15.6427 31.8314 15.3333 31.5314C15.0238 31.2313 14.85 30.8243 14.85 30.4V28.8C14.85 28.3757 15.0238 27.9687 15.3333 27.6686C15.6427 27.3686 16.0624 27.2 16.5 27.2V27.2Z"/>
</mask>
<path fill-rule="evenodd" clip-rule="evenodd" d="M16.5 0C16.9376 0 17.3573 0.168571 17.6667 0.468629C17.9762 0.768687 18.15 1.17565 18.15 1.6V3.2C18.15 3.62435 17.9762 4.03131 17.6667 4.33137C17.3573 4.63143 16.9376 4.8 16.5 4.8C16.0624 4.8 15.6427 4.63143 15.3333 4.33137C15.0238 4.03131 14.85 3.62435 14.85 3.2V1.6C14.85 1.38989 14.8927 1.18183 14.9756 0.987707C15.0585 0.793586 15.1801 0.617203 15.3333 0.468629C15.4865 0.320055 15.6684 0.2022 15.8686 0.121793C16.0688 0.0413851 16.2833 0 16.5 0V0ZM4.83214 4.68571C4.98536 4.53712 5.16726 4.41925 5.36746 4.33884C5.56766 4.25842 5.78223 4.21703 5.99893 4.21703C6.21562 4.21703 6.4302 4.25842 6.6304 4.33884C6.83059 4.41925 7.0125 4.53712 7.16571 4.68571L8.3325 5.81714C8.48572 5.96572 8.60727 6.14212 8.69019 6.33625C8.77312 6.53038 8.8158 6.73845 8.8158 6.94857C8.8158 7.1587 8.77312 7.36677 8.69019 7.5609C8.60727 7.75503 8.48572 7.93142 8.3325 8.08C8.17928 8.22858 7.99737 8.34644 7.79717 8.42685C7.59698 8.50727 7.38241 8.54865 7.16571 8.54865C6.94902 8.54865 6.73445 8.50727 6.53425 8.42685C6.33406 8.34644 6.15215 8.22858 5.99893 8.08L4.83214 6.94857C4.67891 6.8 4.55736 6.62361 4.47442 6.42947C4.39149 6.23534 4.34881 6.02727 4.34881 5.81714C4.34881 5.60701 4.39149 5.39894 4.47442 5.20481C4.55736 5.01068 4.67891 4.83429 4.83214 4.68571V4.68571ZM28.1679 4.68571C28.3211 4.83429 28.4426 5.01068 28.5256 5.20481C28.6085 5.39894 28.6512 5.60701 28.6512 5.81714C28.6512 6.02727 28.6085 6.23534 28.5256 6.42947C28.4426 6.62361 28.3211 6.8 28.1679 6.94857L27.0011 8.08C26.6916 8.38007 26.2719 8.54865 25.8343 8.54865C25.3967 8.54865 24.977 8.38007 24.6675 8.08C24.3581 7.77993 24.1842 7.37294 24.1842 6.94857C24.1842 6.5242 24.3581 6.11722 24.6675 5.81714L25.8343 4.68571C25.9875 4.53712 26.1694 4.41925 26.3696 4.33884C26.5698 4.25842 26.7844 4.21703 27.0011 4.21703C27.2178 4.21703 27.4323 4.25842 27.6325 4.33884C27.8327 4.41925 28.0146 4.53712 28.1679 4.68571V4.68571ZM8.25 16C8.25 13.8783 9.11919 11.8434 10.6664 10.3431C12.2135 8.84286 14.312 8 16.5 8C18.688 8 20.7865 8.84286 22.3336 10.3431C23.8808 11.8434 24.75 13.8783 24.75 16C24.75 18.1217 23.8808 20.1566 22.3336 21.6569C20.7865 23.1571 18.688 24 16.5 24C14.312 24 12.2135 23.1571 10.6664 21.6569C9.11919 20.1566 8.25 18.1217 8.25 16ZM0 16C0 15.5757 0.173839 15.1687 0.483274 14.8686C0.792709 14.5686 1.21239 14.4 1.65 14.4H3.3C3.51668 14.4 3.73124 14.4414 3.93143 14.5218C4.13161 14.6022 4.31351 14.7201 4.46673 14.8686C4.61994 15.0172 4.74148 15.1936 4.8244 15.3877C4.90732 15.5818 4.95 15.7899 4.95 16C4.95 16.2101 4.90732 16.4182 4.8244 16.6123C4.74148 16.8064 4.61994 16.9828 4.46673 17.1314C4.31351 17.2799 4.13161 17.3978 3.93143 17.4782C3.73124 17.5586 3.51668 17.6 3.3 17.6H1.65C1.21239 17.6 0.792709 17.4314 0.483274 17.1314C0.173839 16.8313 0 16.4243 0 16V16ZM28.05 16C28.05 15.5757 28.2238 15.1687 28.5333 14.8686C28.8427 14.5686 29.2624 14.4 29.7 14.4H31.35C31.5667 14.4 31.7812 14.4414 31.9814 14.5218C32.1816 14.6022 32.3635 14.7201 32.5167 14.8686C32.6699 15.0172 32.7915 15.1936 32.8744 15.3877C32.9573 15.5818 33 15.7899 33 16C33 16.2101 32.9573 16.4182 32.8744 16.6123C32.7915 16.8064 32.6699 16.9828 32.5167 17.1314C32.3635 17.2799 32.1816 17.3978 31.9814 17.4782C31.7812 17.5586 31.5667 17.6 31.35 17.6H29.7C29.2624 17.6 28.8427 17.4314 28.5333 17.1314C28.2238 16.8313 28.05 16.4243 28.05 16V16ZM24.6675 23.92C24.8207 23.7714 25.0026 23.6535 25.2028 23.5731C25.403 23.4927 25.6176 23.4513 25.8343 23.4513C26.051 23.4513 26.2656 23.4927 26.4658 23.5731C26.666 23.6535 26.8479 23.7714 27.0011 23.92L28.1679 25.0514C28.3211 25.2 28.4426 25.3764 28.5256 25.5705C28.6085 25.7647 28.6512 25.9727 28.6512 26.1829C28.6512 26.393 28.6085 26.6011 28.5256 26.7952C28.4426 26.9893 28.3211 27.1657 28.1679 27.3143C28.0146 27.4629 27.8327 27.5807 27.6325 27.6611C27.4323 27.7416 27.2178 27.7829 27.0011 27.7829C26.7844 27.7829 26.5698 27.7416 26.3696 27.6611C26.1694 27.5807 25.9875 27.4629 25.8343 27.3143L24.6675 26.1829C24.5143 26.0343 24.3927 25.8579 24.3098 25.6638C24.2269 25.4696 24.1842 25.2616 24.1842 25.0514C24.1842 24.8413 24.2269 24.6332 24.3098 24.4391C24.3927 24.245 24.5143 24.0686 24.6675 23.92V23.92ZM5.99893 23.92C6.30838 23.6199 6.72808 23.4513 7.16571 23.4513C7.60334 23.4513 8.02305 23.6199 8.3325 23.92C8.64195 24.2201 8.8158 24.6271 8.8158 25.0514C8.8158 25.4758 8.64195 25.8828 8.3325 26.1829L7.16571 27.3143C7.01249 27.4629 6.83059 27.5807 6.63039 27.6611C6.43019 27.7416 6.21562 27.7829 5.99893 27.7829C5.78224 27.7829 5.56767 27.7416 5.36747 27.6611C5.16727 27.5807 4.98537 27.4629 4.83214 27.3143C4.67892 27.1657 4.55737 26.9893 4.47445 26.7952C4.39153 26.6011 4.34884 26.393 4.34884 26.1829C4.34884 25.9727 4.39153 25.7647 4.47445 25.5705C4.55737 25.3764 4.67892 25.2 4.83214 25.0514L5.99893 23.92ZM16.5 27.2C16.9376 27.2 17.3573 27.3686 17.6667 27.6686C17.9762 27.9687 18.15 28.3757 18.15 28.8V30.4C18.15 30.8243 17.9762 31.2313 17.6667 31.5314C17.3573 31.8314 16.9376 32 16.5 32C16.0624 32 15.6427 31.8314 15.3333 31.5314C15.0238 31.2313 14.85 30.8243 14.85 30.4V28.8C14.85 28.3757 15.0238 27.9687 15.3333 27.6686C15.6427 27.3686 16.0624 27.2 16.5 27.2V27.2Z" fill="#FFD233" stroke="#FFD233" stroke-width="2" mask="url(#path-1-inside-1)"/>
</svg>
